<svg xmlns="http://www.w3.org/2000/svg" viewBox="0 0 100 100" role="img" aria-label="hyena tooth favicon">
  <defs>
    <linearGradient id="g" x1="0" x2="1" y1="0" y2="1">
      <stop offset="0%" stop-color="#58a6ff"/>
      <stop offset="100%" stop-color="#2ea4ff"/>
    </linearGradient>
  </defs>
  <rect width="100" height="100" rx="16" fill="#071019" />
  <!-- stylised canine tooth -->
  <path d="M50 20c-6 0-10 4-12 9-1 3-1 6 0 9 1 3 3 6 4 9 1 3 2 6 2 9 0 2 1 4 2 4s2-2 2-4c0-3 1-6 2-9 1-3 3-6 4-9 1-3 1-6 0-9-2-5-6-9-12-9z"
        fill="url(#g)" stroke="#9ad1ff" stroke-width="1"/>
</svg>